<svg viewBox="0 0 200 200" xmlns="http://www.w3.org/2000/svg">
<rect width="200" height="200" rx="38" fill="#FFFFFF"/>

<!-- Back tag (duplicate - faded) -->
<g opacity="0.32" transform="translate(20,16)">
  <path d="M 28,48 H 128 L 155,88 L 128,128 H 28 Z" fill="#E53935"/>
  <circle cx="46" cy="88" r="7" fill="white"/>
  <rect x="60" y="78" width="52" height="7" rx="3" fill="white" opacity="0.7"/>
  <rect x="60" y="90" width="38" height="6" rx="3" fill="white" opacity="0.5"/>
  <rect x="60" y="100" width="44" height="5" rx="2.5" fill="white" opacity="0.35"/>
</g>

<!-- Front tag shadow -->
<path d="M 18,58 H 118 L 145,98 L 118,138 H 18 Z" fill="#004D40" opacity="0.10" transform="translate(3,3)"/>

<!-- Front tag (accepted - main) -->
<path d="M 18,58 H 118 L 145,98 L 118,138 H 18 Z" fill="#00897B"/>
<!-- Tag gloss -->
<path d="M 22,58 H 118 L 118,70 H 22 Z" fill="white" opacity="0.10" rx="4"/>
<!-- Tag hole -->
<circle cx="36" cy="98" r="8" fill="#004D40" opacity="0.25"/>
<circle cx="36" cy="98" r="5" fill="white"/>
<!-- Tag content lines -->
<rect x="52" y="82" width="62" height="8" rx="4" fill="white" opacity="0.75"/>
<rect x="52" y="96" width="48" height="6" rx="3" fill="white" opacity="0.45"/>
<rect x="52" y="108" width="40" height="5" rx="2.5" fill="white" opacity="0.32"/>
<!-- Tag inner highlight -->
<path d="M 18,58 H 118 L 145,98" fill="none" stroke="white" stroke-width="1.5" opacity="0.15"/>

<!-- Green checkmark badge (accepted) -->
<circle cx="148" cy="58" r="28" fill="white"/>
<circle cx="148" cy="58" r="22" fill="#2E7D32"/>
<circle cx="148" cy="58" r="22" fill="none" stroke="#A5D6A7" stroke-width="2" opacity="0.5"/>
<polyline points="136,58 144,67 161,48" stroke="white" stroke-width="4.5" fill="none" stroke-linecap="round" stroke-linejoin="round"/>

<!-- Red X badge (duplicate blocked) -->
<circle cx="156" cy="138" r="22" fill="white"/>
<circle cx="156" cy="138" r="17" fill="#C62828"/>
<circle cx="156" cy="138" r="17" fill="none" stroke="#EF9A9A" stroke-width="1.5" opacity="0.5"/>
<line x1="147" y1="129" x2="165" y2="147" stroke="white" stroke-width="4" stroke-linecap="round"/>
<line x1="165" y1="129" x2="147" y2="147" stroke="white" stroke-width="4" stroke-linecap="round"/>
</svg>
